<svg id="Capa_1" enable-background="new 0 0 512 512" height="512" viewBox="0 0 512 512" width="512" xmlns="http://www.w3.org/2000/svg"><g><g><g><g><g><g><g><circle cx="190.28" cy="141.695" fill="#fff2e3" r="134.195"/><path d="m324.472 141.69c0 74.12-60.08 134.2-134.19 134.2-6.87 0-13.62-.52-20.21-1.52 64.52-9.74 113.99-65.43 113.99-132.68 0-67.24-49.47-122.93-113.99-132.67 6.59-1 13.34-1.52 20.21-1.52 74.11 0 134.19 60.08 134.19 134.19z" fill="#fee7c9"/><path d="m324.482 141.69c0 25.49-7.11 49.31-19.44 69.6h-229.52c-12.34-20.29-19.44-44.11-19.44-69.6 0-25.48 7.1-49.3 19.44-69.59h229.52c12.33 20.29 19.44 44.11 19.44 69.59z" fill="#1ca56f"/><path d="m324.482 141.69c0 25.49-7.11 49.31-19.44 69.6h-40.43c12.34-20.29 19.45-44.11 19.45-69.6 0-25.48-7.11-49.3-19.45-69.59h40.43c12.33 20.29 19.44 44.11 19.44 69.59z" fill="#158f5e"/></g></g><g><circle cx="190.28" cy="141.695" fill="#fff2e3" r="69.598"/></g></g><g><g><g><circle cx="367.795" cy="300.707" fill="#fff2e3" r="134.195"/><path d="m501.992 300.71c0 74.11-60.08 134.19-134.2 134.19-6.87 0-13.61-.52-20.2-1.52 64.52-9.74 113.98-65.43 113.98-132.67 0-67.25-49.46-122.94-113.98-132.68 6.59-1 13.33-1.52 20.2-1.52 74.12 0 134.2 60.08 134.2 134.2z" fill="#fee7c9"/><path d="m501.992 300.71c0 25.48-7.1 49.3-19.44 69.6h-229.51c-12.34-20.3-19.44-44.12-19.44-69.6 0-25.49 7.1-49.31 19.44-69.6h229.51c12.34 20.29 19.44 44.11 19.44 69.6z" fill="#fcc16d"/><path d="m501.992 300.71c0 25.48-7.1 49.3-19.44 69.6h-40.42c12.33-20.29 19.44-44.12 19.44-69.6 0-25.49-7.11-49.31-19.44-69.6h40.42c12.34 20.29 19.44 44.11 19.44 69.6z" fill="#fcb44d"/></g></g><g><circle cx="367.795" cy="300.707" fill="#fff2e3" r="69.598"/></g></g><g><g><circle cx="145.405" cy="370.305" fill="#6586ac" r="134.195"/><path d="m279.602 370.31c0 74.11-60.08 134.19-134.2 134.19-6.87 0-13.62-.52-20.21-1.52 64.53-9.74 113.99-65.43 113.99-132.67 0-67.25-49.46-122.94-113.99-132.68 6.59-1 13.34-1.52 20.21-1.52 74.12 0 134.2 60.08 134.2 134.2z" fill="#5071a0"/></g><g><circle cx="145.405" cy="370.305" fill="#fff2e3" r="68.054"/></g></g></g></g></g><g><path d="m501.784 311.244c-4.108-.554-7.879 2.333-8.429 6.438-2.178 16.269-7.447 31.494-15.155 45.123h-64.778c19.07-14.049 31.471-36.649 31.471-62.098s-12.402-48.049-31.471-62.098h64.811c7.751 13.764 12.912 28.943 15.076 44.793.513 3.76 3.73 6.486 7.422 6.486.338 0 .68-.023 1.024-.07 4.104-.561 6.977-4.342 6.417-8.446-4.592-33.635-21.227-64.566-46.838-87.096-25.852-22.74-59.07-35.264-93.538-35.264-12.758 0-25.413 1.749-37.602 5.108 1.175-7.392 1.781-14.897 1.781-22.426-.001-78.13-63.565-141.694-141.695-141.694s-141.695 63.564-141.695 141.695c0 36.97 14.504 72.404 40.1 98.756-18.904 8.268-35.953 20.646-49.807 36.427-22.678 25.834-35.168 59.014-35.168 93.427 0 78.131 63.564 141.695 141.695 141.695 63.454 0 117.298-41.926 135.289-99.531 24.82 19.369 55.359 29.933 87.101 29.933 34.532 0 67.798-12.565 93.671-35.381 25.638-22.608 42.243-53.629 46.756-87.348.55-4.106-2.333-7.88-6.438-8.429zm-71.891-10.537c0 34.241-27.857 62.098-62.098 62.098s-62.098-27.857-62.098-62.098 27.857-62.098 62.098-62.098 62.098 27.857 62.098 62.098zm-142.999 62.098c-1.91-36.072-17.505-68.985-41.926-93.189 2.742-10.856 6.943-21.286 12.427-31.007h64.774c-19.07 14.049-31.471 36.649-31.471 62.098s12.402 48.049 31.471 62.098zm164.532-157.265c6.25 5.498 11.897 11.558 16.895 18.069h-201.019c6.202-8.085 13.372-15.457 21.394-21.876 22.66-18.134 50.012-27.72 79.099-27.72 30.819 0 60.519 11.196 83.631 31.527zm-137.572-35.831c-12.361 5.082-24.017 11.898-34.53 20.312-5.299 4.241-10.268 8.851-14.879 13.778-.041-.001-.08-.006-.121-.006h-28.417c19.07-14.049 31.471-36.649 31.471-62.098s-12.402-48.049-31.471-62.098h64.77c10.369 18.362 16.298 39.549 16.298 62.098-.001 9.459-1.059 18.871-3.121 28.014zm-123.574-154.709c40.873 0 77.28 19.461 100.462 49.597h-200.925c23.182-30.136 59.59-49.597 100.463-49.597zm-110.398 64.597h64.82c-13.607 9.989-23.958 24.381-28.693 41.42-1.109 3.991 1.227 8.125 5.218 9.234 3.99 1.11 8.125-1.227 9.234-5.218 7.435-26.753 32.033-45.437 59.818-45.437 34.241 0 62.098 27.857 62.098 62.098s-27.857 62.098-62.098 62.098c-28.253 0-52.961-19.069-60.086-46.372-1.045-4.008-5.138-6.412-9.15-5.363-4.008 1.046-6.409 5.143-5.363 9.15 4.584 17.568 15.039 32.379 28.92 42.584h-64.726c-10.556-18.776-16.29-40.132-16.29-62.098.001-22.547 5.929-43.735 16.298-62.096zm65.523 417.403c-69.86 0-126.695-56.835-126.695-126.695 0-30.77 11.166-60.436 31.44-83.531 20.091-22.886 47.677-37.782 77.678-41.944 4.103-.569 6.967-4.356 6.398-8.459-.568-4.103-4.351-6.971-8.459-6.398-7.319 1.015-14.508 2.602-21.51 4.727-5.309-4.914-10.151-10.238-14.495-15.906h162.451c-8.608 12.139-15.304 25.591-19.739 39.811-19.318-15.123-42.702-25.385-68.408-28.769-4.109-.536-7.874 2.351-8.415 6.457-.541 4.107 2.351 7.874 6.457 8.415 62.705 8.254 109.991 62.25 109.991 125.598 0 69.859-56.835 126.694-126.694 126.694zm222.39-69.598c-30.651 0-60.049-11.011-83.102-31.062 1.129-6.054 1.878-12.239 2.208-18.535h181.351c-23.358 30.289-60.018 49.597-100.457 49.597z"/><path d="m145.405 294.751c-41.661 0-75.555 33.894-75.555 75.554s33.894 75.554 75.555 75.554 75.554-33.894 75.554-75.554-33.893-75.554-75.554-75.554zm0 136.108c-33.39 0-60.555-27.165-60.555-60.554s27.165-60.554 60.555-60.554 60.554 27.165 60.554 60.554-27.164 60.554-60.554 60.554z"/><path d="m162.962 365.575c3.196-3.909 5.117-8.898 5.117-14.329 0-12.502-10.171-22.674-22.674-22.674s-22.674 10.171-22.674 22.674c0 5.431 1.921 10.42 5.117 14.329-5.515 4.87-9.002 11.986-9.002 19.904 0 14.645 11.915 26.559 26.56 26.559s26.559-11.915 26.559-26.559c-.001-7.918-3.488-15.034-9.003-19.904zm-25.231-14.329c0-4.231 3.443-7.674 7.674-7.674s7.674 3.442 7.674 7.674-3.442 7.674-7.674 7.674-7.674-3.442-7.674-7.674zm7.674 45.793c-6.374 0-11.56-5.186-11.56-11.559 0-6.374 5.186-11.56 11.56-11.56s11.559 5.186 11.559 11.56c0 6.373-5.185 11.559-11.559 11.559z"/><path d="m367.795 309.579c3.093 0 6.046-.6 8.759-1.68v10.597c0 4.83-3.929 8.759-8.759 8.759-3.529 0-6.698-2.101-8.073-5.352-1.614-3.815-6.013-5.601-9.83-3.986-3.815 1.614-5.599 6.015-3.986 9.83 3.728 8.813 12.32 14.508 21.889 14.508 13.101 0 23.759-10.658 23.759-23.759v-31.656c0-.115-.012-.227-.017-.341.006-.226.017-.451.017-.679 0-13.101-10.658-23.759-23.759-23.759s-23.758 10.658-23.758 23.759 10.658 23.759 23.758 23.759zm0-32.518c4.83 0 8.759 3.929 8.759 8.759s-3.929 8.759-8.759 8.759c-4.829 0-8.758-3.929-8.758-8.759s3.929-8.759 8.758-8.759z"/><path d="m164.376 173.41c4.142 0 7.5-3.358 7.5-7.5v-48.43c0-4.142-3.358-7.5-7.5-7.5s-7.5 3.358-7.5 7.5v48.43c0 4.142 3.358 7.5 7.5 7.5z"/><path d="m186.338 152.572h22.345v13.337c0 4.142 3.358 7.5 7.5 7.5s7.5-3.358 7.5-7.5v-48.43c0-4.142-3.358-7.5-7.5-7.5s-7.5 3.358-7.5 7.5v20.093h-12.466l5.044-18.077c1.113-3.99-1.219-8.126-5.208-9.24-3.992-1.113-8.126 1.219-9.24 5.208l-7.699 27.593c-.63 2.259-.167 4.683 1.25 6.551 1.418 1.868 3.629 2.965 5.974 2.965z"/></g></g></svg>