<svg id="Capa_1" enable-background="new 0 0 512 512" height="512" viewBox="0 0 512 512" width="512" xmlns="http://www.w3.org/2000/svg"><g><path d="m426.719 481h-341.438c-47.024 0-85.281-38.257-85.281-85.281 0-15.653 4.304-30.993 12.447-44.362l169.935-278.998c15.538-25.511 43.747-41.359 73.618-41.359s58.08 15.848 73.618 41.359l169.935 278.997c8.143 13.37 12.447 28.709 12.447 44.363 0 47.024-38.257 85.281-85.281 85.281z" fill="#fff47d"/><g><path d="m499.553 351.356-169.935-278.997c-15.538-25.511-43.747-41.359-73.618-41.359v450h170.719c47.024 0 85.281-38.257 85.281-85.281 0-15.654-4.304-30.993-12.447-44.363z" fill="#ffdd54"/></g><path d="m256 61c-19.475 0-37.866 10.332-47.997 26.965l-169.935 278.997c-5.278 8.666-8.068 18.61-8.068 28.757 0 30.482 24.799 55.281 55.281 55.281h341.438c30.482 0 55.281-24.799 55.281-55.281 0-10.146-2.79-20.091-8.068-28.757l-169.935-278.997c-10.131-16.633-28.521-26.965-47.997-26.965z" fill="#5e54ac"/><g><path d="m473.932 366.962-169.935-278.997c-10.131-16.633-28.521-26.965-47.997-26.965v390h170.719c30.482 0 55.281-24.799 55.281-55.281 0-10.147-2.79-20.091-8.068-28.757z" fill="#453d81"/></g><g><circle cx="136" cy="366" fill="#fff47d" r="40"/><circle cx="216" cy="366" fill="#acceff" r="40"/><circle cx="296" cy="366" fill="#00b6bd" r="40"/><circle cx="376" cy="366" fill="#ff4a4a" r="40"/><circle cx="176" cy="296.7" fill="#00eed1" r="40"/><circle cx="256" cy="296.7" fill="#ff8659" r="40"/><path d="m256 256.7c22.091 0 40 17.909 40 40s-17.909 40-40 40z" fill="#ff4a4a"/><circle cx="336" cy="296.7" fill="#ffdd54" r="40"/><circle cx="216" cy="227.4" fill="#ff8659" r="40"/><circle cx="296" cy="227.4" fill="#6ba7ff" r="40"/><circle cx="256" cy="158.1" fill="#fff47d" r="40"/><path d="m256 118.1c22.091 0 40 17.909 40 40s-17.909 40-40 40z" fill="#ffdd54"/></g></g></svg>